<?xml version="1.0" standalone="no"?>
<!DOCTYPE svg PUBLIC "-//W3C//DTD SVG 20010904//EN"
 "http://www.w3.org/TR/2001/REC-SVG-20010904/DTD/svg10.dtd">
<svg version="1.0" xmlns="http://www.w3.org/2000/svg"
 width="100.000000pt" height="100.000000pt" viewBox="0 0 56.000000 47.000000"
 preserveAspectRatio="xMidYMid meet">

<g transform="translate(0.000000,47.000000) scale(0.100000,-0.100000)"
fill="#000000" stroke="none">
<path d="M243 388 c-29 -14 -31 -42 -3 -35 16 4 20 0 20 -19 0 -15 6 -24 15
-24 10 0 15 10 15 26 0 22 3 24 14 15 11 -9 16 -9 22 0 4 7 -2 20 -16 31 -25
20 -35 21 -67 6z"/>
<path d="M150 333 c-33 -23 -40 -33 -40 -65 0 -29 24 -39 33 -14 3 9 15 12 31
9 29 -6 35 11 9 26 -15 8 -15 11 -3 25 21 26 -1 39 -30 19z"/>
<path d="M365 340 c-4 -6 -2 -17 4 -24 8 -10 7 -17 -4 -26 -22 -18 -18 -32 8
-28 12 2 27 -4 34 -12 18 -23 37 1 29 37 -7 32 -60 71 -71 53z"/>
<path d="M116 203 c-3 -3 -6 -19 -6 -34 0 -28 17 -51 50 -69 24 -13 37 5 19
26 -10 12 -9 17 6 28 24 17 11 40 -15 26 -25 -13 -30 -13 -30 4 0 17 -14 28
-24 19z"/>
<path d="M404 186 c-5 -12 -11 -13 -24 -6 -26 14 -38 -9 -15 -27 15 -10 16
-16 7 -25 -17 -17 -15 -28 6 -28 30 1 54 27 55 61 2 34 -19 52 -29 25z"/>
<path d="M260 110 c0 -13 -7 -20 -20 -20 -30 0 -24 -26 10 -40 25 -10 34 -10
55 4 30 20 33 40 5 33 -16 -4 -20 0 -20 19 0 15 -6 24 -15 24 -8 0 -15 -9 -15
-20z"/>
</g>
</svg>
