<?xml version="1.0" standalone="no"?>
<!DOCTYPE svg PUBLIC "-//W3C//DTD SVG 20010904//EN"
 "http://www.w3.org/TR/2001/REC-SVG-20010904/DTD/svg10.dtd">
<svg version="1.0" xmlns="http://www.w3.org/2000/svg"
 width="512.000000pt" height="512.000000pt" viewBox="0 0 512.000000 512.000000"
 preserveAspectRatio="xMidYMid meet">

<g transform="translate(0.000000,512.000000) scale(0.100000,-0.100000)"
fill="#000000" stroke="none">
<path d="M3306 5108 c-17 -7 -538 -550 -1408 -1472 -760 -803 -1387 -1471
-1395 -1483 -42 -63 -12 -169 57 -205 33 -17 77 -18 757 -18 638 0 723 -2 723
-15 0 -8 -97 -402 -215 -875 -118 -473 -215 -876 -215 -895 0 -98 94 -165 191
-136 35 10 224 207 1421 1474 759 804 1387 1472 1395 1484 42 63 12 169 -57
205 -33 17 -77 18 -757 18 -638 0 -723 2 -723 15 0 8 97 402 215 875 118 473
215 877 215 898 0 98 -106 166 -204 130z m-406 -1368 c-132 -528 -171 -698
-166 -725 7 -37 45 -88 80 -108 16 -9 183 -13 670 -17 l650 -5 -1040 -1101
c-571 -606 -1041 -1100 -1043 -1098 -2 2 74 314 169 694 132 528 171 698 166
725 -7 37 -45 88 -80 108 -16 9 -183 13 -670 17 l-650 5 1040 1101 c571 606
1041 1100 1043 1098 2 -2 -74 -314 -169 -694z"/>
</g>
</svg>
