<?xml version="1.0" standalone="no"?>
<!DOCTYPE svg PUBLIC "-//W3C//DTD SVG 20010904//EN"
 "http://www.w3.org/TR/2001/REC-SVG-20010904/DTD/svg10.dtd">
<svg version="1.0" xmlns="http://www.w3.org/2000/svg"
 width="64.000000pt" height="64.000000pt" viewBox="0 0 64.000000 64.000000"
 preserveAspectRatio="xMidYMid meet">

<g transform="translate(0.000000,64.000000) scale(0.100000,-0.100000)"
fill="#000000" stroke="none">
<path d="M187 618 c-129 -75 -76 -273 73 -273 110 0 181 115 131 213 -39 76
-130 102 -204 60z m134 -67 c57 -58 21 -146 -60 -146 -50 0 -79 26 -88 78 -5
31 -1 40 25 67 41 40 83 41 123 1z"/>
<path d="M100 262 c-37 -20 -80 -89 -80 -129 0 -12 13 -37 29 -55 27 -30 32
-32 117 -36 96 -4 134 9 121 42 -5 13 -21 16 -87 16 -122 0 -148 25 -94 89
l26 31 128 0 c103 0 130 -3 140 -16 24 -28 47 -35 64 -18 21 20 7 48 -37 74
-46 28 -275 29 -327 2z"/>
<path d="M515 130 l-59 -60 -31 30 c-34 33 -62 39 -72 14 -6 -16 81 -114 102
-114 6 0 45 35 88 78 56 57 76 83 71 95 -11 30 -38 18 -99 -43z"/>
</g>
</svg>
