<?xml version="1.0" standalone="no"?>
<!DOCTYPE svg PUBLIC "-//W3C//DTD SVG 20010904//EN"
 "http://www.w3.org/TR/2001/REC-SVG-20010904/DTD/svg10.dtd">
<svg version="1.0" xmlns="http://www.w3.org/2000/svg"
 width="512.000000pt" height="512.000000pt" viewBox="0 0 512.000000 512.000000"
 preserveAspectRatio="xMidYMid meet">

<g transform="translate(0.000000,512.000000) scale(0.100000,-0.100000)"
fill="#000000" stroke="none">
<path d="M2505 5114 c-324 -34 -575 -104 -845 -237 -98 -48 -158 -84 -186
-112 -96 -97 -98 -257 -4 -354 54 -56 94 -74 175 -79 l70 -4 145 72 c164 82
325 138 491 172 99 20 144 23 339 23 195 0 240 -3 338 -23 732 -148 1286 -702
1434 -1434 21 -105 23 -137 23 -448 -1 -357 -12 -510 -61 -845 -34 -228 -75
-431 -134 -663 -28 -105 -50 -211 -50 -235 0 -52 31 -121 73 -165 125 -131
346 -95 416 69 48 111 156 585 201 883 80 533 102 1131 51 1431 -111 659 -473
1215 -1026 1577 -273 179 -592 301 -926 353 -100 15 -439 28 -524 19z"/>
<path d="M843 4080 c-53 -12 -121 -58 -151 -103 -79 -114 -194 -384 -242 -570
-57 -215 -76 -360 -85 -647 -11 -356 -72 -622 -221 -959 -33 -75 -36 -90 -31
-147 11 -139 115 -236 253 -237 75 0 135 26 186 80 45 46 120 210 183 398 95
284 131 495 145 840 5 132 16 283 24 335 31 200 95 393 195 587 61 116 70 167
47 248 -38 127 -173 206 -303 175z"/>
<path d="M2538 4079 c-551 -68 -997 -476 -1112 -1019 -10 -43 -21 -170 -26
-300 -5 -124 -15 -270 -21 -325 -51 -480 -207 -941 -460 -1365 -78 -131 -96
-190 -79 -264 14 -62 31 -94 72 -133 100 -96 262 -98 356 -3 45 44 169 255
252 425 192 398 309 789 365 1220 9 66 20 227 26 357 11 270 25 344 88 473 95
192 279 343 486 400 93 25 256 31 351 11 209 -42 387 -162 500 -337 56 -86 81
-143 105 -244 31 -132 25 -447 -17 -823 -18 -167 -12 -211 41 -283 47 -65 118
-99 204 -99 80 0 134 24 190 85 51 55 66 107 85 300 40 395 44 727 11 890
-105 513 -499 912 -1002 1014 -119 25 -307 34 -415 20z"/>
<path d="M2641 3049 c-56 -11 -124 -51 -157 -94 -38 -50 -54 -116 -54 -224 0
-107 -14 -319 -30 -456 -71 -593 -277 -1200 -584 -1716 -41 -70 -80 -147 -87
-173 -31 -122 38 -251 158 -296 64 -24 103 -25 169 -5 77 23 116 64 206 213
291 489 509 1075 607 1632 50 282 92 775 76 895 -20 151 -156 251 -304 224z"/>
<path d="M3427 1494 c-62 -20 -139 -93 -160 -154 -8 -25 -41 -124 -71 -220
-67 -208 -144 -403 -251 -635 -71 -154 -79 -176 -78 -230 2 -229 283 -340 439
-173 112 118 454 1000 454 1169 0 100 -43 176 -127 221 -63 35 -141 43 -206
22z"/>
</g>
</svg>
